<?xml version="1.0" encoding="utf-8"?>
<!-- Generator: Adobe Illustrator 16.0.0, SVG Export Plug-In . SVG Version: 6.00 Build 0)  -->
<!DOCTYPE svg PUBLIC "-//W3C//DTD SVG 1.1//EN" "http://www.w3.org/Graphics/SVG/1.1/DTD/svg11.dtd">
<svg version="1.1" id="Layer_1" xmlns="http://www.w3.org/2000/svg" xmlns:xlink="http://www.w3.org/1999/xlink" x="0px" y="0px"
	 width="500px" height="500px" viewBox="0 0 500 500" enable-background="new 0 0 500 500" xml:space="preserve">
<path fill="#FBB03B" d="M303.27,474c44.072-46.826,87.235-89.053,13.773-163.424c-17.242-17.463-41.512-24.543-61.866-41.263
	c-13.304-10.907-24.9-25.92-31.787-50.572c-17.821,19.447-19.145,35.974-12.863,54.18c4.379,12.727,12.422,26.278,21.126,42.227
	c33.054,60.6-53.245,73.463-45.917,11.019c-93.653,83.57,3.69,145.987,3.69,145.987S70.102,429.185,73.711,326.855
	c1.431-40.271,21.925-89.742,76.216-149.431C224.299,95.726,240.826,116.825,240.826,14
	c103.762,123.952-5.509,206.119,65.198,213.941c24.156,2.672,31.209-33.054,31.209-33.054s80.432,47.294,89.741,116.708
	C433.256,358.256,407.362,414.944,303.27,474z"/>
<path fill="#EB2900" d="M231.653,315.148c33.054,60.6-53.245,73.463-45.917,11.019c-93.653,83.57,3.69,145.987,3.69,145.987
	S70.102,429.185,73.711,326.855c36.717-27.077,83.985-46.276,136.815-53.934C214.906,285.648,222.949,299.2,231.653,315.148z"/>
<path fill="#EB2900" d="M303.27,474c44.072-46.826,87.235-89.053,13.773-163.424c-17.242-17.463-41.512-24.543-61.866-41.263
	c2.26-0.026,4.517-0.055,6.776-0.055c62.25,0,119.572,15.812,165.021,42.337C433.256,358.256,407.362,414.944,303.27,474z"/>
</svg>
